<svg xmlns="http://www.w3.org/2000/svg"><symbol id="cross-validated" viewBox="-3 -3 40 40"><path fill="currentcolor" d="M28 6h6V0h-6z"/><path fill="currentcolor" d="M28 13h6V7h-6z"/><path fill="currentcolor" d="M21 13h6V7h-6zM14 20h6v-6h-6z"/><path fill="currentcolor" d="M0 20h13v-6H0z"/><path fill="currentcolor" d="M7 27h6v-6H7z"/><path fill="currentcolor" d="M21 20h13v-6H21z"/><path fill="currentcolor" d="M0 27h6v-6H0z"/><path fill="currentcolor" d="M0 34h6v-6H0z"/><path fill="currentcolor" d="M20 7H1.5A12.35 12.35 0 0 0 0 13c0 .05 6.67.05 20 0V7zm-7-7C8.4-.01 4.4 2.07 2 6h25V0H13z"/><path fill="currentcolor" d="M14 27h18.5a12.35 12.35 0 0 0 1.5-6c0-.05-6.67-.05-20 0v6zm7 7c4.8 0 8.7-2.22 11-6H7v5.94L21 34z"/></symbol></svg>